<svg xmlns="http://www.w3.org/2000/svg" version="1.1" width="388" height="423" viewBox="0 0 388 423">
  <path fill="#d4a017" d="M 91.00,187.00
           C 92.76,181.44 97.77,173.39 100.69,168.00
             100.69,168.00 121.58,131.00 121.58,131.00
             121.58,131.00 169.14,44.00 169.14,44.00
             169.14,44.00 186.58,11.00 186.58,11.00
             187.89,8.66 191.18,0.59 194.00,0.59
             196.82,0.59 200.11,8.66 201.42,11.00
             201.42,11.00 218.86,44.00 218.86,44.00
             218.86,44.00 266.42,131.00 266.42,131.00
             266.42,131.00 287.31,168.00 287.31,168.00
             290.23,173.39 295.24,181.44 297.00,187.00
             297.00,187.00 263.00,182.00 263.00,182.00
             263.00,182.00 290.98,224.00 290.98,224.00
             290.98,224.00 323.33,272.00 323.33,272.00
             323.33,272.00 346.00,307.00 346.00,307.00
             346.00,307.00 304.00,300.00 304.00,300.00
             304.00,300.00 324.67,332.00 324.67,332.00
             324.67,332.00 355.71,376.00 355.71,376.00
             355.71,376.00 388.00,423.00 388.00,423.00
             388.00,423.00 340.00,412.42 340.00,412.42
             340.00,412.42 244.00,390.35 244.00,390.35
             244.00,390.35 213.00,383.13 213.00,383.13
             213.00,383.13 194.00,379.34 194.00,379.34
             194.00,379.34 175.00,383.13 175.00,383.13
             175.00,383.13 144.00,390.35 144.00,390.35
             144.00,390.35 48.00,412.42 48.00,412.42
             48.00,412.42 0.00,423.00 0.00,423.00
             0.00,423.00 32.29,376.00 32.29,376.00
             32.29,376.00 63.33,332.00 63.33,332.00
             63.33,332.00 84.00,300.00 84.00,300.00
             84.00,300.00 42.00,307.00 42.00,307.00
             42.00,307.00 64.67,272.00 64.67,272.00
             64.67,272.00 97.02,224.00 97.02,224.00
             97.02,224.00 125.00,182.00 125.00,182.00
             125.00,182.00 91.00,187.00 91.00,187.00 Z
           M 195.00,45.00
           C 195.00,45.00 193.00,45.00 193.00,45.00
             193.00,45.00 184.25,62.00 184.25,62.00
             184.25,62.00 147.69,130.00 147.69,130.00
             147.69,130.00 133.00,157.00 133.00,157.00
             133.00,157.00 166.00,151.00 166.00,151.00
             156.77,177.44 128.87,217.17 112.66,241.00
             107.51,248.57 92.73,267.98 90.00,275.00
             90.00,275.00 125.00,269.00 125.00,269.00
             122.64,277.27 112.33,295.11 107.60,303.00
             107.60,303.00 71.28,359.00 71.28,359.00
             66.65,365.63 53.41,383.71 51.00,390.00
             51.00,390.00 138.00,369.63 138.00,369.63
             138.00,369.63 166.00,363.00 166.00,363.00
             166.00,363.00 167.00,347.00 167.00,347.00
             167.00,347.00 167.00,329.00 167.00,329.00
             167.00,329.00 135.00,335.00 135.00,335.00
             135.00,335.00 158.86,284.00 158.86,284.00
             158.86,284.00 167.18,265.00 167.18,265.00
             167.18,265.00 167.18,250.00 167.18,250.00
             167.05,239.05 169.44,228.47 172.42,218.00
             172.42,218.00 185.42,170.00 185.42,170.00
             185.42,170.00 193.00,140.00 193.00,140.00
             193.00,140.00 195.00,140.00 195.00,140.00
             195.00,140.00 202.58,170.00 202.58,170.00
             202.58,170.00 215.58,218.00 215.58,218.00
             218.56,228.47 220.95,239.05 220.82,250.00
             220.82,250.00 220.82,265.00 220.82,265.00
             220.82,265.00 229.14,284.00 229.14,284.00
             229.14,284.00 253.00,335.00 253.00,335.00
             253.00,335.00 221.00,329.00 221.00,329.00
             221.00,329.00 221.00,346.00 221.00,346.00
             221.00,346.00 222.00,363.00 222.00,363.00
             222.00,363.00 250.00,369.63 250.00,369.63
             250.00,369.63 337.00,390.00 337.00,390.00
             334.59,383.71 321.35,365.63 316.72,359.00
             316.72,359.00 280.40,303.00 280.40,303.00
             275.67,295.11 265.36,277.27 263.00,269.00
             263.00,269.00 298.00,275.00 298.00,275.00
             295.27,267.98 280.49,248.57 275.34,241.00
             259.13,217.17 231.23,177.44 222.00,151.00
             222.00,151.00 255.00,157.00 255.00,157.00
             255.00,157.00 240.31,130.00 240.31,130.00
             240.31,130.00 203.75,62.00 203.75,62.00
             203.75,62.00 195.00,45.00 195.00,45.00 Z" />
</svg>
